<svg width="314" height="276" viewBox="0 0 314 276" fill="none" xmlns="http://www.w3.org/2000/svg">
<circle cx="137.715" cy="163.58" r="96.8071" transform="rotate(-7.5 137.715 163.58)" fill="black"/>
<circle cx="137.28" cy="163.247" r="67.765" transform="rotate(-7.5 137.28 163.247)" fill="white"/>
<path d="M52.4469 198.24L85.1106 240.808L31.9136 247.812L52.4469 198.24Z" fill="black"/>
<path d="M196.716 173.011L211.791 210.323L171.941 204.722L196.716 173.011Z" fill="white"/>
<circle cx="105.365" cy="167.058" r="11.6168" transform="rotate(-7.5 105.365 167.058)" fill="black"/>
<circle cx="137.614" cy="162.812" r="11.6168" transform="rotate(-7.5 137.614 162.812)" fill="black"/>
<circle cx="169.863" cy="158.567" r="11.6168" transform="rotate(-7.5 169.863 158.567)" fill="black"/>
<path d="M125.66 67.5249L113.562 69.1176L129.421 68.5971L146.753 71.0175L165.049 78.0131L176.789 84.6964L186.089 92.0928L195.489 103.003L203.008 113.376L208.952 125.525L213.015 134.394L215.858 144.992L217.228 155.392L218.242 163.095L217.984 174.885L222.003 164.167L233.96 125.759L296.386 105.001L288.627 46.0698L240.591 52.3939L242.112 63.9491L213.29 67.7436L198.959 57.8748L170.138 61.6693L125.66 67.5249Z" fill="black"/>
<rect x="183.904" y="21.9552" width="6.97011" height="23.0077" transform="rotate(-45 183.904 21.9552)" fill="black"/>
<rect x="211.154" y="9.40106" width="6.97011" height="23.0077" transform="rotate(-7.5 211.154 9.40106)" fill="black"/>
<rect x="241.771" y="10.0571" width="6.97011" height="23.0077" transform="rotate(30 241.771 10.0571)" fill="black"/>
</svg>
