<svg width="112" height="94" viewBox="0 0 112 94" fill="none" xmlns="http://www.w3.org/2000/svg">
<circle cx="46.9178" cy="55.9984" r="37.8368" fill="black"/>
<circle cx="46.7662" cy="55.847" r="26.4857" fill="#FFEF5A"/>
<path d="M12.1078 65.0793L22.5934 83.2409H1.62213L12.1078 65.0793Z" fill="black"/>
<path d="M69.2999 62.6628L73.238 77.8903L58.0816 73.687L69.2999 62.6628Z" fill="#FFEF5A"/>
<circle cx="34.2045" cy="55.6957" r="4.54041" fill="black"/>
<circle cx="46.9176" cy="55.6957" r="4.54041" fill="black"/>
<circle cx="59.6307" cy="55.6957" r="4.54041" fill="black"/>
<path d="M47.1465 18.1616H42.3772L48.5492 18.769L55.142 20.5911L61.8751 24.2354L66.0833 27.4241L69.3096 30.7646L72.3956 35.4717L74.7802 39.8752L76.4635 44.886L77.5857 48.5303L78.1468 52.7819V56.8816V59.9185L77.4454 64.4738L79.5495 60.5259L86.1423 46.2526L111.391 41.3936V18.1616H92.4546V22.7169H81.0925L76.0427 18.1616L64.6806 18.1616H47.1465Z" fill="black"/>
<rect x="72.0413" y="3.47461" width="2.72425" height="8.9925" transform="rotate(-37.5 72.0413 3.47461)" fill="black"/>
<rect x="83.241" width="2.72425" height="8.9925" fill="black"/>
<rect x="95.0715" y="1.81619" width="2.72425" height="8.99251" transform="rotate(37.5 95.0715 1.81619)" fill="black"/>
</svg>
